<svg width="35" height="32" viewBox="0 0 35 32" fill="none" xmlns="http://www.w3.org/2000/svg">
<path d="M17.1707 10.7014C17.7589 10.7014 18.2358 11.1631 18.2358 11.7327V19.9833C18.2358 20.5528 17.7589 21.0146 17.1707 21.0146C16.5825 21.0146 16.1056 20.5528 16.1056 19.9833V11.7327C16.1056 11.1631 16.5825 10.7014 17.1707 10.7014ZM17.1707 26.1712C18.053 26.1712 18.7683 25.4786 18.7683 24.6242C18.7683 23.7698 18.053 23.0772 17.1707 23.0772C16.2884 23.0772 15.5731 23.7698 15.5731 24.6242C15.5731 25.4786 16.2884 26.1712 17.1707 26.1712ZM14.371 2.14589C15.585 0.0086652 18.7565 0.00865757 19.9704 2.14589L33.9414 26.7428C35.1126 28.8048 33.572 31.3278 31.1417 31.3278H3.19976C0.769476 31.3278 -0.771132 28.8048 0.400067 26.7428L14.371 2.14589ZM18.104 3.13991C17.6993 2.42751 16.6422 2.4275 16.2375 3.13992L2.26653 27.7368C1.87613 28.4241 2.38966 29.2651 3.19976 29.2651H31.1417C31.9518 29.2651 32.4653 28.4241 32.0749 27.7368L18.104 3.13991Z" fill="#DC0000"/>
</svg>
